_________________________  Visit us at _________________________
  
http://p2pdl.com  ____________________________  http://p2pdl.com

 
http://www.shotpix.com/images/77189558248099141961.jpg


Flight 2012 BRRip 720p x264 AAC - PRiSTiNE [P2PDL]
				
Genre: Drama
An airline pilot saves a flight from crashing, but an investigation into the malfunctions reveals something troubling.
Director: Robert Zemeckis
Stars: Denzel Washington, Nadine Velazquez, Don Cheadle
Rated: Rated R for drug and alcohol abuse, language, sexuality/nudity and an intense action.

Info:  
http://www.imdb.com/title/tt1907668/
 
http://www.rottentomatoes.com/m/flight_2012/


General
Format                         : MPEG-4
Format profile                 : Base Media / Version 2
Codec ID                       : mp42
File size                      : 778 MiB
Duration                       : 2h 18mn
Overall bit rate mode          : Variable
Overall bit rate               : 785 Kbps
Movie name                     : Flight 2012 BRRip 720p x264 AAC - PRiSTiNE [P2PDL]

Source                         : 720p.BluRay.X264 SPARKS (Thanks)


Video
Format                         : AVC
Bit rate                       : 700 Kbps
Width                          : 1 280 pixels
Height                         : 528 pixels
Display aspect ratio           : 2.40:1
Frame rate mode                : Variable
Frame rate                     : 23.976 fps
Color space                    : YUV
Chroma subsampling             : 4:2:0
Bit depth                      : 8 bits
Scan type                      : Progressive
Bits/(Pixel*Frame)             : 0.043
Stream size                    : 694 MiB (89%)
Writing library                : x264 core 128

Audio
Format                         : AAC
Bit rate                       : 79.9 Kbps
Channel(s)                     : 2 channels
Channel positions              : Front: L R
Sampling rate                  : 48.0 KHz
Stream size                    : 79.2 MiB (10%)

Subtitle                       : Yes ( English)


Screens:
 
http://www.shotpix.com/images/56534908419053524213.jpg 
http://www.shotpix.com/images/31764904654858148736.jpg 
http://www.shotpix.com/images/82990775474420912027.jpg 
http://www.shotpix.com/images/95295247025475249113.jpg 
http://www.shotpix.com/images/81214204837246725880.jpg


Thumbs:
 
http://www.shotpix.com/images/84792319017940595632.jpg

----------------------------------------------------------------------------------------------------


Recommend to you to use latest version of VLC player. Install K-Lite Codec Pack or shark007 codecs
in case of any kind of problem in playback (For non-VLC Media Player users). Alternatively, install
Core AVC codecs, the fastest decoder that there is coupled with Community Center Codec Pack and play
on Windows Media Player Classic. Check sample to be sure.
Enjoy!

Greets to: VYTO, a2zRG, MusiK_KinG, Neon, Kuroyukihime, TorDigger, Ash968, StyLishSaLH and staff members at
ExtraTorrent, TPB, H33T, KAT, 1337x, PublicHD, Ahashare, BTScene, SilverTorrent, LimeTorrents, TorrentMafia,
P2PDL, and all others.

Encoder Notes: Looking For Early Access To Anything You Can Provide DVDScr, R5, DVDR, BluRay, Direct
Audio, Early Music Releases, Seedboxes, Dedicated Servers anything u can provide, Advance / Promo CDs/
DVDs. If You Got anything to offer contact me at "prg@hush.com".
Fan Page: www .. com / p2pdl